<svg width="226" height="62" viewBox="0 0 226 62" fill="none" xmlns="http://www.w3.org/2000/svg">
<path d="M15.8443 61.877C14.96 61.6415 14.1499 61.1841 13.4902 60.5479L12.8816 59.9726H21.512L20.9034 60.5479C20.2326 61.1909 19.4074 61.6487 18.5081 61.877C17.6332 62.0403 16.7357 62.0403 15.8608 61.877H15.8443ZM10.4086 58.777C10.0595 58.5989 9.78163 58.3064 9.62105 57.9479C9.46046 57.5895 9.42685 57.1867 9.52576 56.8064C9.69396 56.3657 10.0049 55.9946 10.4086 55.7526C10.5675 55.6995 10.5628 55.6865 10.3332 55.5494C10.0421 55.3725 9.80808 55.1149 9.6594 54.8077C9.51071 54.5004 9.45367 54.1565 9.49515 53.8175C9.59071 53.3383 9.86745 52.9149 10.2673 52.6361C10.5369 52.5179 10.5275 52.4766 10.2238 52.2947C9.91473 52.0814 9.68423 51.7719 9.56786 51.414C9.45149 51.0562 9.45572 50.6698 9.5799 50.3146C9.68516 50.0697 9.83931 49.8489 10.0329 49.6661C10.2264 49.4832 10.4552 49.3421 10.7052 49.2514C11.1466 49.1226 23.267 49.1226 23.7084 49.2514C23.9584 49.3421 24.1872 49.4832 24.3808 49.6661C24.5743 49.8489 24.7285 50.0697 24.8337 50.3146C24.9557 50.67 24.9588 51.0557 24.8426 51.413C24.7264 51.7704 24.4972 52.0799 24.1899 52.2947C23.885 52.4624 23.885 52.5073 24.1463 52.6361C24.5482 52.9129 24.8255 53.3373 24.9185 53.8175C24.96 54.1565 24.9029 54.5004 24.7542 54.8077C24.6055 55.1149 24.3715 55.3725 24.0804 55.5494C23.8509 55.6865 23.845 55.7042 24.0051 55.7526C24.4088 55.9946 24.7197 56.3657 24.8879 56.8064C24.9868 57.1867 24.9532 57.5895 24.7926 57.9479C24.632 58.3064 24.3541 58.5989 24.0051 58.777C23.6649 58.9318 23.3612 58.9365 17.2145 58.9365C11.0677 58.9365 10.7499 58.9448 10.4109 58.79L10.4086 58.777ZM19.8558 56.3457C20.0266 56.1669 20.1219 55.9288 20.1219 55.6812C20.1219 55.4335 20.0266 55.1954 19.8558 55.0166L19.6087 54.7378H12.3543L12.0941 54.9859C11.9395 55.1133 11.8326 55.2897 11.7909 55.4861C11.7492 55.6825 11.7752 55.8873 11.8646 56.0669C12.1424 56.6576 12.0588 56.6422 16.048 56.6292H19.631L19.8864 56.3587L19.8558 56.3457ZM22.243 53.2457C22.3854 53.1172 22.4931 52.9547 22.5561 52.7731C22.6152 52.5848 22.617 52.3829 22.5613 52.1935C22.5055 52.0041 22.3947 51.8357 22.243 51.7099C22.0311 51.5421 21.9122 51.5421 17.1815 51.5421C12.4508 51.5421 12.3284 51.5421 12.12 51.7099C12.0194 51.7937 11.9362 51.8967 11.8754 52.013C11.8145 52.1292 11.7772 52.2563 11.7655 52.3871C11.7538 52.5179 11.768 52.6497 11.8072 52.7749C11.8464 52.9002 11.9099 53.0164 11.9941 53.1169C12.0316 53.1618 12.0729 53.2033 12.1177 53.241C12.3296 53.4087 12.4485 53.4087 17.1792 53.4087C21.9098 53.4087 22.0593 53.4312 22.2583 53.2587L22.243 53.2457ZM10.5463 48.1349C10.0306 47.9355 9.57429 47.6069 9.22089 47.1804C8.33808 46.2022 7.97671 45.0633 7.85783 42.7513C7.81428 41.9101 7.69893 40.7429 7.5977 40.1605C7.08323 37.475 6.31181 34.8456 5.29414 32.3089C4.52762 30.4849 3.65103 28.7095 2.66925 26.9926C1.39517 24.9024 0.545129 22.5802 0.167946 20.1593C-0.0520527 18.1623 -0.0548164 16.1472 0.159706 14.1495C0.719335 10.7625 2.27208 7.61966 4.61967 5.12245C6.53008 3.08571 9.96716 1.15884 13.1712 0.428734C15.821 -0.140063 18.5608 -0.140063 21.2107 0.428734C24.5642 1.19428 27.9754 3.1306 30.0047 5.40244C32.4312 8.07396 33.9468 11.4519 34.3316 15.0462C34.451 16.5487 34.4392 18.0588 34.2963 19.5592C33.9732 22.194 33.0931 24.7291 31.715 26.9949C30.7332 28.7119 29.8566 30.4873 29.0901 32.3112C28.0765 34.8585 27.311 37.4983 26.8042 40.1936C26.7029 40.7784 26.5923 41.9657 26.544 42.7844C26.4605 44.4761 26.2839 45.3268 25.8601 46.1986C25.4849 46.9205 24.9281 47.5313 24.2452 47.9707L23.8038 48.2271H17.3298C12.1895 48.2271 10.8041 48.2271 10.5569 48.1255L10.5463 48.1349ZM15.9962 44.6191C16.0221 43.7921 15.9962 42.059 15.9703 40.7713C15.9226 38.6104 15.7457 36.4544 15.4406 34.3149C15.33 33.4076 15.2111 32.4022 15.1805 32.1009C15.1369 31.6579 15.0969 31.5256 14.9862 31.5256C14.6908 31.5256 13.1241 30.675 12.5144 30.1965C11.4222 29.3087 10.5689 28.1605 10.0323 26.8567C9.49563 25.5529 9.29277 24.1351 9.44218 22.7324C9.79531 19.7258 11.415 17.3559 13.9645 16.1166C15.8879 15.1915 17.2251 15.1644 17.8077 16.041C18.3904 16.9176 17.9843 18.1131 16.7224 19.4375C16.1798 20.0093 16.1622 20.0128 15.7337 20.0128C15.6097 20.0287 15.4838 20.0179 15.3643 19.9812C15.2448 19.9446 15.1344 19.8829 15.0404 19.8002C14.879 19.6575 14.7575 19.4749 14.6879 19.2706C14.6184 19.0663 14.6031 18.8473 14.6437 18.6353L14.6967 18.2939L14.4613 18.4487C13.5847 18.9852 12.8632 19.7426 12.3684 20.6455C11.8737 21.5485 11.6229 22.5657 11.641 23.596C11.6275 24.3797 11.7736 25.1579 12.0703 25.883C12.367 26.608 12.8081 27.2646 13.3666 27.8125C13.9186 28.3665 14.8403 29.0352 15.0427 29.0352C15.1044 28.6901 15.1355 28.3403 15.1357 27.9897C15.3712 23.3267 16.8037 19.4422 18.7847 18.1226C19.4566 17.6511 20.271 17.4289 21.0882 17.4941C21.5801 17.475 22.0671 17.5981 22.4913 17.8485C23.3735 18.3025 24.0664 19.0561 24.4465 19.975C24.8555 20.7842 25.0958 21.6686 25.1527 22.5741C25.2795 23.8903 25.1071 25.2183 24.6486 26.4579C24.19 27.6976 23.4573 28.8167 22.5055 29.7311C21.3439 30.8567 19.8557 31.5824 18.2562 31.8032C17.9785 31.839 17.7033 31.8922 17.4322 31.9627C17.4322 31.9627 17.5076 33.2209 17.6523 34.7083C17.9704 37.5013 18.1178 40.3112 18.0937 43.1223V46.1171H20.7045C23.7179 46.1171 23.5589 46.1608 24.0004 45.2665C24.3052 44.6557 24.4064 44.0615 24.5171 42.1665C24.6937 39.1776 25.6118 35.488 27.0984 31.6886C27.8967 29.7462 28.8183 27.8572 29.8575 26.0333C30.5636 24.9186 31.1298 23.7207 31.5431 22.4666C33.4488 16.5856 32.1316 10.5096 28.0789 6.43971C26.9806 5.31196 25.6892 4.39158 24.2664 3.72248C22.0781 2.61231 19.6621 2.02948 17.2101 2.02025C14.7582 2.01102 12.3379 2.57565 10.1414 3.66932C7.1998 5.08063 4.83782 7.4734 3.45907 10.4388C1.71595 14.2115 1.4912 18.5139 2.83168 22.4489C3.24482 23.7037 3.81098 24.9025 4.51726 26.0179C5.54671 27.8267 6.4604 29.6995 7.2528 31.6248C8.86776 35.7385 9.74117 39.3831 9.90007 42.6958C9.95775 44.0248 10.1025 44.7679 10.425 45.3527C10.8394 46.1277 10.7299 46.1017 13.5137 46.1017H15.9444C15.9444 46.1325 15.9927 44.6179 15.9927 44.6179L15.9962 44.6191ZM18.8906 29.2609C20.1594 28.8119 21.2465 27.9575 21.9849 26.8288C22.7233 25.7001 23.0725 24.3594 22.9786 23.0124C22.9033 21.6526 22.3524 20.4133 21.6544 20.0058C20.9564 19.5982 20.0065 19.9124 19.418 20.7146C18.3586 22.1004 17.5735 25.1437 17.3887 28.5119L17.331 29.5397L17.9042 29.4735C18.2385 29.4243 18.5689 29.3517 18.893 29.2561L18.8906 29.2609Z" fill="white"/>
<path d="M57.3911 10.8335V29.7749H66.3133V30.9563H56.1904V10.8335H57.3911Z" fill="white"/>
<path d="M83.1768 10.8335V12.0149H71.4437V20.0484H81.8832V21.244H71.4437V29.7749H83.5464V30.9563H70.2395V10.8335H83.1768Z" fill="white"/>
<path d="M114.636 20.8506C114.636 26.9265 110.245 30.9563 103.605 30.9563H95.0018V10.7756H103.83C110.335 10.7756 114.636 14.7746 114.636 20.8506ZM108.542 20.9085C108.542 17.6537 106.578 15.4835 103.689 15.4835H100.963V26.2626H103.976C106.721 26.2626 108.543 24.1325 108.543 20.9085H108.542Z" fill="white"/>
<path d="M122.522 10.7756V30.9528H116.556V10.7756H122.522Z" fill="white"/>
<path d="M133.362 15.2095C132.356 15.2095 131.699 15.5544 131.699 16.3034C131.699 19.2711 142.196 17.512 142.196 24.7977C142.196 29.0886 138.41 31.13 133.905 31.13C130.491 31.13 126.761 29.9215 124.237 27.9332L126.474 23.3848C128.538 25.1569 131.896 26.4848 133.975 26.4848C135.237 26.4848 136.04 26.0417 136.04 25.1344C136.04 22.0829 125.543 24.0097 125.543 16.9012C125.543 13.0132 128.838 10.537 133.86 10.537C136.814 10.5327 139.713 11.3396 142.243 12.8703L140.037 17.4777C137.982 16.2715 135.057 15.2095 133.362 15.2095Z" fill="white"/>
<path d="M153.814 15.5816C151.091 15.5816 149.027 17.7955 149.027 20.7632C149.027 23.7309 151.091 25.9744 153.814 25.9744C155.363 25.9744 157.227 25.0529 158.606 23.6411L162.048 27.3259C159.868 29.6887 156.567 31.2139 153.528 31.2139C147.416 31.2139 142.916 26.7848 142.916 20.8175C142.916 14.9448 147.507 10.6102 153.727 10.6102C156.859 10.6382 159.852 11.913 162.049 14.1544L158.607 18.2421C157.344 16.6484 155.481 15.5816 153.814 15.5816Z" fill="white"/>
<path d="M183.994 20.8507C183.994 26.7801 179.348 31.2139 173.038 31.2139C166.728 31.2139 162.082 26.8073 162.082 20.8507C162.082 14.894 166.719 10.6115 173.029 10.6115C179.338 10.6115 183.994 14.9472 183.994 20.8507ZM168.193 20.8778C168.193 23.9294 170.487 26.1941 173.126 26.1941C175.765 26.1941 177.888 23.9223 177.888 20.8778C177.888 17.8334 175.769 15.6076 173.126 15.6076C170.484 15.6076 168.182 17.8263 168.182 20.8778H168.193Z" fill="white"/>
<path d="M197.672 30.9527L195.031 25.51H191.876V30.9527H185.905V10.7756H195.285C200.677 10.7756 203.774 13.3664 203.774 17.9455C203.774 20.9392 202.57 23.1271 200.39 24.3664L204.463 30.961L197.672 30.9527ZM191.853 20.9037H195.266C197.032 20.9037 198.077 19.9255 198.077 18.1097C198.077 16.2939 197.041 15.3724 195.266 15.3724H191.853V20.9037Z" fill="white"/>
<path d="M226 20.8506C226 26.9265 221.609 30.9563 214.969 30.9563H206.365V10.7756H215.193C221.697 10.7756 226 14.7746 226 20.8506ZM219.92 20.9085C219.92 17.6537 217.939 15.4965 215.067 15.4965H212.334V26.2626H215.347C218.084 26.2626 219.92 24.1325 219.92 20.9085Z" fill="white"/>
<path d="M60.3958 35.8816V56.0623H54.4303V35.8816H60.3958Z" fill="white"/>
<path d="M68.5413 35.8816L77.061 47.1652V35.8816H82.5097V56.0623H77.4318L68.9121 44.839V56.0623H63.4327V35.8816H68.5413Z" fill="white"/>
<path d="M93.3201 40.3143C92.3137 40.3143 91.6569 40.6592 91.6569 41.4083C91.6569 44.3759 102.154 42.6168 102.154 49.9025C102.154 54.1934 98.3686 56.2349 93.8627 56.2349C90.4492 56.2349 86.719 55.0263 84.1953 53.038L86.4318 48.4896C88.4964 50.2617 91.8546 51.5896 93.9334 51.5896C95.1952 51.5896 95.998 51.1466 95.998 50.2392C95.998 47.1877 85.5007 49.1145 85.5007 42.006C85.5007 38.1181 88.7965 35.6418 93.818 35.6418C96.7721 35.6375 99.6712 36.4444 102.201 37.9751L99.9953 42.5826C97.9531 41.3775 95.0151 40.3143 93.3201 40.3143Z" fill="white"/>
<path d="M124.759 45.9566C124.759 51.8861 120.113 56.3199 113.802 56.3199C107.492 56.3199 102.846 51.9133 102.846 45.9566C102.846 40 107.492 35.7092 113.802 35.7092C120.113 35.7092 124.759 40.0532 124.759 45.9566ZM108.954 45.9826C108.954 49.0342 111.248 51.2989 113.887 51.2989C116.526 51.2989 118.648 49.0271 118.648 45.9826C118.648 42.9382 116.53 40.7254 113.892 40.7254C111.254 40.7254 108.954 42.9393 108.954 45.9826Z" fill="white"/>
<path d="M135.9 51.3155C137.881 51.3155 139.284 49.8978 139.284 47.5421V35.8816H145.249V47.5421C145.249 52.8962 141.6 56.3234 135.869 56.3234C130.138 56.3234 126.348 52.8974 126.348 47.5421V35.8816H132.313V47.5421C132.292 49.8706 133.874 51.3155 135.9 51.3155Z" fill="white"/>
<path d="M154.352 35.8816L159.205 47.0506L164.058 35.8816H170.455V56.0623H165.217L165.189 44.1089L161.144 54.0681H157.246L153.196 44.1089V56.0623H147.947V35.8816H154.352Z" fill="white"/>
<path d="M179.445 35.8816V56.0623H173.479V35.8816H179.445Z" fill="white"/>
<path d="M190.26 40.3143C189.253 40.3143 188.596 40.6592 188.596 41.4083C188.596 44.3759 199.094 42.6168 199.094 49.9025C199.094 54.1934 195.308 56.2349 190.802 56.2349C187.389 56.2349 183.659 55.0263 181.135 53.038L183.371 48.4896C185.436 50.2617 188.794 51.5896 190.873 51.5896C192.135 51.5896 192.938 51.1466 192.938 50.2392C192.938 47.1877 182.44 49.1145 182.44 42.006C182.44 38.1181 185.736 35.6418 190.758 35.6418C193.712 35.6375 196.611 36.4444 199.141 37.9751L196.935 42.5826C194.875 41.3775 191.936 40.3143 190.26 40.3143Z" fill="white"/>
</svg>
